<?xml version="1.0" encoding="utf-8"?>
<!-- Generator: Adobe Illustrator 16.0.4, SVG Export Plug-In . SVG Version: 6.00 Build 0)  -->
<!DOCTYPE svg PUBLIC "-//W3C//DTD SVG 1.1//EN" "http://www.w3.org/Graphics/SVG/1.1/DTD/svg11.dtd">
<svg version="1.1" xmlns="http://www.w3.org/2000/svg" xmlns:xlink="http://www.w3.org/1999/xlink" x="0px" y="0px"
	 viewBox="0 0 448.026 503.947" enable-background="new 0 0 448.026 503.947"
	 xml:space="preserve">
<style>
.hidden {display:none;}
.reveal {display:block;}
</style>
<g id="gallows">
	<g>
		<line fill="#FFFFFF" x1="57.895" y1="490.789" x2="57.895" y2="19.079"/>
		<g>
			<path fill="#231F20" d="M60.395,490.789c0-30.553,0-61.105,0-91.658c0-63.303,0-126.606,0-189.91c0-53.521,0-107.042,0-160.562
				c0-9.86,0-19.72,0-29.58c0-3.224-5-3.224-5,0c0,30.553,0,61.105,0,91.658c0,63.303,0,126.606,0,189.91
				c0,53.521,0,107.042,0,160.562c0,9.86,0,19.72,0,29.58C55.395,494.014,60.395,494.014,60.395,490.789L60.395,490.789z"/>
		</g>
	</g>
	<g>
		<line fill="#FFFFFF" x1="57.895" y1="19.079" x2="353.29" y2="19.079"/>
		<g>
			<path fill="#231F20" d="M57.895,21.579c41.938,0,83.876,0,125.814,0c53.818,0,107.635,0,161.453,0c2.709,0,5.419,0,8.128,0
				c3.225,0,3.225-5,0-5c-41.938,0-83.876,0-125.814,0c-53.818,0-107.635,0-161.453,0c-2.709,0-5.418,0-8.128,0
				C54.671,16.579,54.671,21.579,57.895,21.579L57.895,21.579z"/>
		</g>
	</g>
	<g>
		<line fill="#FFFFFF" x1="157.237" y1="19.079" x2="58.553" y2="117.763"/>
		<g>
			<path fill="#231F20" d="M155.469,17.312c-32.678,32.678-65.356,65.356-98.034,98.034c-0.217,0.217-0.434,0.434-0.65,0.65
				c-2.282,2.282,1.253,5.817,3.535,3.535c32.678-32.678,65.356-65.356,98.034-98.034c0.217-0.217,0.434-0.434,0.65-0.65
				C161.287,18.565,157.751,15.029,155.469,17.312L155.469,17.312z"/>
		</g>
	</g>
	<g>
		<line fill="#FFFFFF" x1="244.526" y1="19.079" x2="244.526" y2="72.369"/>
		<g>
			<path fill="#231F20" d="M242.026,19.079c0,17.763,0,35.526,0,53.29c0,3.224,5,3.224,5,0c0-17.763,0-35.526,0-53.29
				C247.026,15.855,242.026,15.855,242.026,19.079L242.026,19.079z"/>
		</g>
	</g>
	<g>
		<line fill="#FFFFFF" x1="15.131" y1="490.789" x2="430.921" y2="490.789"/>
		<g>
			<path fill="#231F20" d="M15.131,493.289c33.586,0,67.173,0,100.76,0c64.253,0,128.506,0,192.759,0c40.157,0,80.315,0,120.474,0
				c0.6,0,1.198,0,1.798,0c3.225,0,3.225-5,0-5c-33.587,0-67.174,0-100.76,0c-64.253,0-128.506,0-192.758,0
				c-40.158,0-80.316,0-120.474,0c-0.599,0-1.199,0-1.798,0C11.907,488.289,11.907,493.289,15.131,493.289L15.131,493.289z"/>
		</g>
	</g>
</g>
<g class="hidden" id="head">
	<g>
		<circle fill="#FFFFFF" cx="244.526" cy="139.369" r="75"/>
		<g>
			<path fill="#231F20" d="M317.026,139.369c-0.217,23.589-11.526,45.556-30.747,59.288c-19.253,13.754-44.401,16.642-66.562,8.864
				c-21.846-7.667-38.561-26.412-44.98-48.447c-6.645-22.809-0.924-47.94,14.103-66.148c19.383-23.487,52.015-31.706,80.496-21.71
				C297.928,81.251,316.75,109.442,317.026,139.369c0.029,3.223,5.029,3.226,5,0c-0.42-45.655-40.343-81.662-85.855-77.04
				c-45.292,4.6-76.125,48.787-67.532,92.82c7.577,38.831,45.416,65.203,84.242,61.26c39.118-3.973,68.787-38.149,69.145-77.04
				C322.055,136.143,317.055,136.146,317.026,139.369z"/>
		</g>
	</g>
</g>
<g class="hidden" id="torso">
	<g>
		<line fill="#FFFFFF" x1="244.526" y1="214.369" x2="244.526" y2="358.553"/>
		<g>
			<path fill="#231F20" d="M242.026,214.369c0,47.223,0,94.445,0,141.668c0,0.838,0,1.677,0,2.516c0,3.225,5,3.225,5,0
				c0-47.223,0-94.445,0-141.668c0-0.839,0-1.677,0-2.516C247.026,211.145,242.026,211.145,242.026,214.369L242.026,214.369z"/>
		</g>
	</g>
</g>
<g class="hidden" id="left_arm">
	<g>
		<line fill="#FFFFFF" x1="244.526" y1="260.526" x2="343.21" y2="209.869"/>
		<g>
			<path fill="#231F20" d="M245.788,262.685c32.895-16.886,65.79-33.772,98.685-50.658c2.869-1.473,0.339-5.787-2.523-4.317
				c-32.895,16.886-65.79,33.772-98.685,50.658C240.395,259.841,242.925,264.155,245.788,262.685L245.788,262.685z"/>
		</g>
	</g>
</g>
<g class="hidden" id="right_arm">
	<g>
		<line fill="#FFFFFF" x1="244.526" y1="260.526" x2="155.053" y2="202.632"/>
		<g>
			<path fill="#231F20" d="M245.788,258.368c-29.824-19.298-59.648-38.596-89.473-57.895c-2.716-1.757-5.22,2.573-2.523,4.317
				c29.824,19.298,59.649,38.596,89.473,57.895C245.98,264.442,248.484,260.112,245.788,258.368L245.788,258.368z"/>
		</g>
	</g>
</g>
<g class="hidden" id="left_leg">
	<g>
		<line fill="#FFFFFF" x1="244.526" y1="358.553" x2="301.105" y2="448.026"/>
		<g>
			<path fill="#231F20" d="M242.367,359.814c18.86,29.824,37.72,59.649,56.58,89.474c1.718,2.717,6.046,0.21,4.316-2.523
				c-18.859-29.824-37.719-59.649-56.578-89.474C244.966,354.574,240.638,357.081,242.367,359.814L242.367,359.814z"/>
		</g>
	</g>
</g>
<g class="hidden" id="right_leg">
	<g>
		<line fill="#FFFFFF" x1="244.526" y1="358.553" x2="187.947" y2="448.026"/>
		<g>
			<path fill="#231F20" d="M242.367,357.291c-18.859,29.824-37.719,59.649-56.578,89.474c-1.729,2.733,2.6,5.24,4.317,2.523
				c18.859-29.824,37.719-59.649,56.579-89.474C248.414,357.081,244.085,354.574,242.367,357.291L242.367,357.291z"/>
		</g>
	</g>
</g>
<g class="hidden" id="face">
	<g>
		<line fill="#FFFFFF" x1="189.184" y1="104.869" x2="210.237" y2="122.632"/>
		<g>
			<path fill="#231F20" d="M187.417,106.636c7.018,5.921,14.035,11.842,21.053,17.763c2.447,2.065,6.003-1.453,3.535-3.535
				c-7.018-5.921-14.035-11.842-21.053-17.763C188.504,101.036,184.949,104.554,187.417,106.636L187.417,106.636z"/>
		</g>
	</g>
	<g>
		<line fill="#FFFFFF" x1="210.237" y1="104.869" x2="189.184" y2="122.632"/>
		<g>
			<path fill="#231F20" d="M208.469,103.101c-7.018,5.921-14.035,11.842-21.053,17.763c-2.468,2.082,1.088,5.601,3.535,3.535
				c7.018-5.921,14.035-11.842,21.053-17.763C214.472,104.554,210.917,101.036,208.469,103.101L208.469,103.101z"/>
		</g>
	</g>
	<g>
		<line fill="#FFFFFF" x1="280.369" y1="128.763" x2="300.974" y2="151.132"/>
		<g>
			<path fill="#231F20" d="M278.601,130.531c6.868,7.457,13.736,14.913,20.605,22.369c2.188,2.376,5.716-1.168,3.535-3.535
				c-6.868-7.457-13.736-14.913-20.605-22.369C279.948,124.619,276.421,128.164,278.601,130.531L278.601,130.531z"/>
		</g>
	</g>
	<g>
		<line fill="#FFFFFF" x1="300.105" y1="129.75" x2="280.369" y2="150.369"/>
		<g>
			<path fill="#231F20" d="M298.337,127.982c-6.579,6.873-13.158,13.746-19.736,20.619c-2.229,2.328,1.302,5.869,3.535,3.535
				c6.579-6.873,13.158-13.746,19.736-20.619C304.101,129.189,300.571,125.649,298.337,127.982L298.337,127.982z"/>
		</g>
	</g>
	<g>
		<path fill="#FFFFFF" d="M208.013,192.105c0,0,20.5-6.355,31.684-6.355s35.751,10.96,35.751,10.96"/>
		<g>
			<path fill="#231F20" d="M208.678,194.516c10.484-3.232,22.621-7.192,33.674-6.099c10.812,1.07,21.979,6.072,31.834,10.452
				c2.919,1.297,5.465-3.01,2.523-4.317c-10.394-4.62-21.447-9.152-32.728-10.92c-11.878-1.861-25.365,2.589-36.633,6.063
				C204.277,190.642,205.588,195.469,208.678,194.516L208.678,194.516z"/>
		</g>
	</g>
</g>
</svg>
